<?xml version="1.0" encoding="utf-8"?>
<!-- Generator: Adobe Illustrator 16.0.0, SVG Export Plug-In . SVG Version: 6.00 Build 0)  -->
<!DOCTYPE svg PUBLIC "-//W3C//DTD SVG 1.1//EN" "http://www.w3.org/Graphics/SVG/1.1/DTD/svg11.dtd">
<svg version="1.1" id="图层_1" xmlns="http://www.w3.org/2000/svg" xmlns:xlink="http://www.w3.org/1999/xlink" x="0px" y="0px"
	 width="25.057px" height="40.501px" viewBox="0 0 25.057 40.501" enable-background="new 0 0 25.057 40.501" xml:space="preserve">
<g>
	<g>
		<path fill-rule="evenodd" clip-rule="evenodd" fill="#DDDDDD" d="M7.916,20.25L22.658,5.479c0.942-0.943,0.942-2.472,0-3.416
			l-0.2-0.202c-0.942-0.943-2.468-0.943-3.41,0L2.6,18.341l0,0l-0.201,0.201c-0.941,0.943-0.941,2.473,0,3.416L2.6,22.16
			c0.001,0.001,0.002,0.001,0.003,0.003l16.444,16.475c0.942,0.944,2.468,0.944,3.41,0l0.2-0.201c0.942-0.943,0.942-2.473,0-3.417
			L7.916,20.25z"/>
	</g>
</g>
</svg>
