<?xml version="1.0" encoding="utf-8"?>
<!-- Generator: Adobe Illustrator 16.0.0, SVG Export Plug-In . SVG Version: 6.00 Build 0)  -->
<!DOCTYPE svg PUBLIC "-//W3C//DTD SVG 1.1//EN" "http://www.w3.org/Graphics/SVG/1.1/DTD/svg11.dtd">
<svg version="1.1" id="图层_1" xmlns="http://www.w3.org/2000/svg" xmlns:xlink="http://www.w3.org/1999/xlink" x="0px" y="0px"
	 width="200px" height="200px" viewBox="0 0 200 200" enable-background="new 0 0 200 200" xml:space="preserve">
<g>
	<g>
		<path fill="#A7A7A7" d="M185.676,80.899c-1.303-4.949-5.938-8.49-13.753-10.573c-0.888-0.26-1.825-0.469-2.815-0.677
			c-1.926-0.417-3.751,0.833-4.167,2.761c-0.364,1.927,0.833,3.749,2.762,4.166c0.834,0.157,1.667,0.365,2.396,0.573
			c5.054,1.355,8.127,3.333,8.805,5.574v0.052c1.043,3.854-4.167,10.154-14.899,17.134c-0.313-4.166-0.99-8.386-2.136-12.552
			c-5.054-18.854-18.079-34.531-35.688-42.968c-14.377-6.876-30.736-8.385-46.158-4.27c-28.653,7.655-47.931,32.916-49.441,61.04
			c-6.148,3.646-11.149,7.344-14.9,11.042c-2.136,2.083-3.803,4.219-5.054,6.405c-1.25,2.188-1.979,4.531-1.979,6.927
			c0,0.938,0.104,1.876,0.365,2.761v0.053c2.344,8.593,14.952,12.343,32.248,12.603c4.793,7.345,10.993,13.75,18.339,18.804
			c11.253,7.708,24.434,11.717,37.771,11.717c5.783,0,11.619-0.729,17.296-2.291c28.654-7.657,47.982-32.969,49.442-61.145
			c14.794-8.855,23.858-18.438,21.62-27.032C185.676,80.95,185.676,80.899,185.676,80.899z M15.784,126.471
			c-0.104-0.364-0.156-0.677-0.156-0.989c0-0.886,0.313-2.031,1.094-3.489c1.407-2.501,4.377-5.677,8.648-9.011
			c1.563-1.198,3.334-2.448,5.262-3.699c0.313,4.167,0.99,8.388,2.136,12.606c1.094,4.165,2.605,8.124,4.48,11.926
			C24.537,133.139,16.878,130.325,15.784,126.471z M112.792,162.304c-16.881,4.532-34.854,1.459-49.286-8.438
			c-5.314-3.646-9.951-8.073-13.806-13.125c16.619-0.728,36.261-4.011,54.86-9.011c18.65-4.999,37.303-11.927,52.045-19.635
			C153.636,135.479,136.911,155.847,112.792,162.304z M102.787,124.961c-23.079,6.197-42.771,8.803-57.516,9.011
			c-2.448-4.375-4.376-9.011-5.678-13.905c-8.544-31.824,10.419-64.688,42.304-73.23c5.105-1.354,10.262-2.031,15.473-2.031
			c8.856,0,17.713,1.979,25.84,5.885c15.786,7.552,27.404,21.563,31.936,38.437c1.355,4.95,1.98,9.949,2.033,14.895
			C144.258,111.211,125.868,118.764,102.787,124.961z M164.16,58.451c7.553,0,13.649-6.094,13.649-13.646
			c0-7.552-6.097-13.646-13.649-13.646c-7.504,0-13.65,6.094-13.65,13.646C150.51,52.357,156.604,58.451,164.16,58.451z
			 M164.16,37.357c4.114,0,7.45,3.335,7.45,7.449c0.052,4.115-3.336,7.448-7.45,7.448c-4.116,0-7.451-3.333-7.451-7.448
			C156.709,40.692,160.044,37.357,164.16,37.357z M59.13,105.951c-0.052-1.929-1.719-3.489-3.647-3.386
			c-1.928,0.053-3.438,1.718-3.386,3.646c0.052,1.613,0.208,3.28,0.469,4.896c0.26,1.771,1.771,3.02,3.49,3.02
			c0.157,0,0.365,0,0.521-0.053c1.928-0.26,3.23-2.083,2.969-4.009C59.338,108.712,59.182,107.304,59.13,105.951z M86.221,60.69
			c-14.692,3.699-26.518,14.532-31.571,28.854c-0.625,1.823,0.313,3.854,2.136,4.479c0.365,0.155,0.782,0.207,1.146,0.207
			c1.459,0,2.814-0.885,3.335-2.343c4.272-12.137,14.274-21.25,26.673-24.375c1.876-0.469,3.022-2.395,2.554-4.271
			C90.023,61.368,88.096,60.222,86.221,60.69z M93.254,13.036l3.126,1.042l1.042,3.125c0.26,0.729,0.886,1.198,1.667,1.198
			c0.783,0,1.406-0.469,1.668-1.198l1.041-3.125l3.126-1.042c0.729-0.261,1.2-0.886,1.2-1.667c0-0.78-0.471-1.407-1.2-1.667
			l-3.126-1.042l-1.041-3.125c-0.262-0.729-0.885-1.198-1.668-1.198c-0.78,0-1.406,0.469-1.667,1.198L96.38,8.66l-3.126,1.042
			c-0.73,0.26-1.199,0.887-1.199,1.667C92.056,12.149,92.524,12.774,93.254,13.036z M11.251,84.023
			c0.261,0.73,0.886,1.198,1.668,1.198c0.781,0,1.407-0.468,1.667-1.198l1.459-4.427l4.428-1.458
			c0.729-0.26,1.199-0.885,1.199-1.668c0-0.78-0.47-1.406-1.199-1.665l-4.428-1.458l-1.459-4.427
			c-0.26-0.729-0.886-1.198-1.667-1.198c-0.782,0-1.407,0.469-1.668,1.198l-1.458,4.427l-4.429,1.458
			c-0.729,0.259-1.198,0.885-1.198,1.665c0,0.783,0.469,1.408,1.198,1.668l4.429,1.458L11.251,84.023z M62.725,178.5l-3.126-1.04
			l-1.042-3.126c-0.261-0.729-0.886-1.196-1.667-1.196s-1.407,0.468-1.667,1.196l-1.042,3.126l-3.125,1.04
			c-0.729,0.263-1.199,0.888-1.199,1.668c0,0.781,0.469,1.408,1.199,1.668l3.125,1.041l1.042,3.126
			c0.26,0.728,0.886,1.195,1.667,1.195s1.406-0.468,1.667-1.195l1.042-3.126l3.126-1.041c0.729-0.26,1.198-0.887,1.198-1.668
			C63.923,179.388,63.454,178.763,62.725,178.5z M48.085,30.743c1.956,0,3.542-1.585,3.542-3.542c0-1.957-1.586-3.542-3.542-3.542
			c-1.957,0-3.543,1.585-3.543,3.542C44.542,29.158,46.129,30.743,48.085,30.743z M97.318,188.919c-1.957,0-3.543,1.585-3.543,3.541
			c0,1.266,0.675,2.434,1.772,3.066c1.095,0.632,2.446,0.632,3.541,0c1.097-0.633,1.771-1.801,1.771-3.066
			C100.859,190.504,99.274,188.919,97.318,188.919z M192.293,108.034c-1.958,0-3.543,1.586-3.543,3.542
			c0,1.955,1.585,3.541,3.543,3.541c1.956,0,3.541-1.586,3.541-3.541C195.834,109.62,194.249,108.034,192.293,108.034z
			 M128.994,30.743c1.956,0,3.541-1.585,3.541-3.542c0-1.957-1.585-3.542-3.541-3.542s-3.544,1.585-3.544,3.542
			C125.45,29.158,127.038,30.743,128.994,30.743z M182.341,148.606l-4.429-1.458l-1.458-4.427c-0.26-0.729-0.886-1.198-1.668-1.198
			c-0.78,0-1.405,0.469-1.666,1.198l-1.458,4.427l-4.429,1.458c-0.729,0.261-1.199,0.886-1.199,1.666
			c0,0.782,0.47,1.407,1.199,1.666l4.429,1.46l1.458,4.427c0.261,0.729,0.886,1.197,1.666,1.197c0.782,0,1.408-0.468,1.668-1.197
			l1.458-4.427l4.429-1.46c0.729-0.259,1.2-0.884,1.2-1.666C183.541,149.492,183.019,148.867,182.341,148.606z"/>
	</g>
</g>
</svg>
